<?xml version="1.0" encoding="utf-8"?>
<!-- Generator: Adobe Illustrator 26.5.0, SVG Export Plug-In . SVG Version: 6.00 Build 0)  -->
<svg version="1.1" id="Layer_1" xmlns="http://www.w3.org/2000/svg" xmlns:xlink="http://www.w3.org/1999/xlink" x="0px" y="0px"
	 viewBox="0 0 24 24" style="enable-background:new 0 0 24 24;" xml:space="preserve">
<style type="text/css">
	.st0{fill:#6300FF;}
</style>
<path class="st0" d="M21.3,9.6l-1.9-0.6l0.9-1.8c0.2-0.4,0.1-0.8-0.2-1.1L18,3.9c-0.3-0.3-0.8-0.4-1.1-0.2l-1.8,0.9l-0.6-1.9
	C14.3,2.3,13.9,2,13.5,2h-3c-0.4,0-0.8,0.3-0.9,0.7L8.9,4.6L7.1,3.7C6.8,3.5,6.3,3.6,6,3.9L3.9,6C3.6,6.3,3.5,6.8,3.7,7.2l0.9,1.8
	L2.7,9.6C2.3,9.7,2,10.1,2,10.5v3c0,0.4,0.3,0.8,0.7,0.9l1.9,0.6l-0.9,1.8c-0.2,0.4-0.1,0.8,0.2,1.1L6,20.1c0.3,0.3,0.8,0.4,1.2,0.2
	l1.8-0.9l0.6,1.9c0.1,0.4,0.5,0.7,0.9,0.7h3c0.4,0,0.8-0.3,0.9-0.7l0.6-1.9l1.8,0.9c0.4,0.2,0.8,0.1,1.1-0.2l2.1-2.1
	c0.3-0.3,0.4-0.8,0.2-1.1l-0.9-1.8l1.9-0.6c0.4-0.1,0.7-0.5,0.7-0.9v-3C22,10.1,21.7,9.7,21.3,9.6z M20,12.8l-1.2,0.4
	c-1.1,0.3-1.6,1.5-1.3,2.5c0,0.1,0.1,0.2,0.1,0.3l0.6,1.1l-1.1,1.1L16,17.6c-1-0.5-2.2-0.1-2.7,0.9c0,0.1-0.1,0.2-0.1,0.3L12.8,20
	h-1.6l-0.4-1.2c-0.3-1.1-1.5-1.6-2.5-1.3c-0.1,0-0.2,0.1-0.3,0.1l-1.1,0.6l-1.1-1.1L6.4,16c0.5-1,0.1-2.2-0.9-2.7
	c-0.1,0-0.2-0.1-0.3-0.1L4,12.8v-1.6l1.2-0.4c1.1-0.3,1.6-1.5,1.3-2.5c0-0.1-0.1-0.2-0.1-0.3L5.8,6.9l1.1-1.1L8,6.4
	c1,0.5,2.2,0.1,2.7-0.9c0-0.1,0.1-0.2,0.1-0.3L11.2,4h1.6l0.4,1.2c0.3,1.1,1.5,1.6,2.5,1.3c0.1,0,0.2-0.1,0.3-0.1l1.1-0.6l1.1,1.1
	L17.6,8c-0.5,1-0.1,2.2,0.9,2.7c0.1,0,0.2,0.1,0.3,0.1l1.2,0.4V12.8z M12,8c-2.2,0-4,1.8-4,4s1.8,4,4,4s4-1.8,4-4S14.2,8,12,8z
	 M12,14c-1.1,0-2-0.9-2-2s0.9-2,2-2s2,0.9,2,2S13.1,14,12,14z"/>
</svg>
