<?xml version="1.0" encoding="utf-8"?>
<!-- Generator: Adobe Illustrator 26.5.0, SVG Export Plug-In . SVG Version: 6.00 Build 0)  -->
<svg version="1.1" id="Layer_1" xmlns="http://www.w3.org/2000/svg" xmlns:xlink="http://www.w3.org/1999/xlink" x="0px" y="0px"
	 viewBox="0 0 16 16" style="enable-background:new 0 0 16 16;" xml:space="preserve">
<style type="text/css">
	.st0{fill:#FFFFFF;}
	.st1{fill:#6300FF;}
</style>
<g>
	<path class="st0" d="M8.6,6.2c0.1,0,0.1-0.1,0.1-0.1c0-0.1,0-0.1,0-0.2V4.3c0,0,0.1,0,0.1,0c0.1,0,0.1,0,0.2,0c0,0,0.1,0,0.1,0
		c0,0,0.1,0,0.1,0c0,0,0.1,0.1,0.1,0.1c0,0,0,0.1,0,0.1V6c0,0.1,0,0.2,0,0.3c0,0.1-0.1,0.1-0.1,0.2C9.1,6.6,9,6.6,8.8,6.6
		c-0.1,0-0.2,0-0.2-0.1C8.5,6.5,8.5,6.4,8.6,6.2L8.6,6.2z"/>
	<path class="st1" d="M8.7,3.8c0-0.1,0-0.2,0.1-0.2C8.9,3.5,9,3.4,9.1,3.4s0.2,0,0.2,0.1c0.1,0.1,0.1,0.3,0,0.5
		C9.2,4,9.2,4.1,9.1,4.1S8.9,4,8.8,4C8.8,3.9,8.7,3.8,8.7,3.8z"/>
	<path class="st0" d="M9.8,4.3c0,0,0.1,0,0.1,0c0.1,0,0.1,0,0.2,0c0,0,0.1,0,0.1,0c0,0,0.1,0,0.1,0c0,0,0.1,0.1,0.1,0.1
		c0,0,0,0.1,0,0.1v0.8c0,0.1,0,0.2,0.1,0.2s0.1,0.1,0.2,0.1c0,0,0.1,0,0.1,0c0,0,0.1,0,0.1,0V4.3c0,0,0.1,0,0.1,0c0.1,0,0.1,0,0.2,0
		c0,0,0.1,0,0.1,0c0,0,0.1,0,0.1,0c0,0,0.1,0.1,0.1,0.1c0,0,0,0.1,0,0.1v1.1c0,0.1-0.1,0.2-0.2,0.3C11.3,6,11.2,6,11.1,6
		c-0.1,0-0.3,0-0.4,0c-0.1,0-0.2,0-0.4,0c-0.1,0-0.2-0.1-0.3-0.1C10,5.8,9.9,5.7,9.9,5.6c0-0.1-0.1-0.2-0.1-0.3L9.8,4.3L9.8,4.3z"/>
	<path class="st0" d="M13.5,5.5c0,0.2-0.1,0.3-0.2,0.4c-0.1,0.1-0.3,0.2-0.6,0.2c-0.1,0-0.2,0-0.3,0c-0.1,0-0.2,0-0.2-0.1
		c-0.1,0-0.1-0.1-0.1-0.1c0,0-0.1-0.1-0.1-0.2c0-0.1,0-0.1,0-0.1c0,0,0.1-0.1,0.1-0.1c0.1,0,0.2,0.1,0.2,0.1c0.1,0,0.2,0,0.3,0
		c0.1,0,0.1,0,0.2,0s0.1-0.1,0.1-0.1c0,0,0-0.1,0-0.1c0,0-0.1,0-0.1,0l-0.1,0c-0.2,0-0.4-0.1-0.5-0.2C12,5.1,12,4.9,12,4.8
		c0-0.2,0.1-0.3,0.2-0.4c0.1-0.1,0.2-0.1,0.3-0.1c0.1,0,0.2,0,0.3,0c0.1,0,0.2,0,0.3,0c0.1,0,0.1,0,0.2,0.1c0.1,0,0.1,0.1,0.1,0.1
		c0,0,0.1,0.1,0.1,0.2c0,0,0,0.1,0,0.1c0,0,0,0.1-0.1,0.1c0,0-0.1,0-0.1,0c0,0-0.1,0-0.1,0s-0.1,0-0.1,0c0,0-0.1,0-0.1,0
		c-0.1,0-0.1,0-0.2,0c0,0-0.1,0-0.1,0.1c0,0,0,0.1,0,0.1c0,0,0.1,0,0.1,0l0.1,0C13.1,5,13.2,5,13.3,5.1C13.4,5.2,13.5,5.3,13.5,5.5z
		"/>
	<path class="st0" d="M14.5,5.4c0,0.1,0,0.1,0.1,0.1c0,0,0.1,0,0.2,0c0,0,0.1,0,0.1,0c0,0,0.1,0,0.1,0c0,0,0,0.1,0.1,0.1
		c0,0,0,0.1,0,0.1c0,0.1,0,0.2-0.1,0.2c-0.1,0.1-0.2,0.1-0.4,0.1c-0.2,0-0.4,0-0.5-0.1c-0.1-0.1-0.2-0.3-0.2-0.5V3.9
		c0,0,0.1,0,0.1,0c0.1,0,0.1,0,0.2,0c0.1,0,0.2,0,0.2,0.1c0.1,0,0.1,0.1,0.1,0.2v0.2h0.5c0,0,0,0.1,0,0.1c0,0,0,0.1,0,0.1
		c0,0.1,0,0.1-0.1,0.2c0,0-0.1,0.1-0.1,0.1h-0.3L14.5,5.4L14.5,5.4z"/>
	<path class="st0" d="M9.6,9.3c-0.1,0-0.3,0-0.4-0.1C9.1,9.2,9,9.1,8.9,9C8.8,8.9,8.8,8.8,8.7,8.7C8.7,8.6,8.6,8.5,8.6,8.3
		c0-0.2,0-0.3,0.1-0.4C8.8,7.7,9,7.5,9.2,7.4c0.1,0,0.2-0.1,0.3-0.1c0.1,0,0.2,0,0.3,0.1c0.1,0,0.2,0.1,0.3,0.2
		c0.1,0.1,0.1,0.1,0.2,0.2c0,0.1,0.1,0.2,0.1,0.3c0,0.1,0,0.1-0.1,0.2s-0.1,0.1-0.2,0.1L9.3,8.6c0,0.1,0.1,0.1,0.2,0.2
		c0.1,0,0.2,0.1,0.3,0.1c0.1,0,0.2,0,0.3,0c0.1,0,0.1-0.1,0.2-0.1c0,0,0.1,0.1,0.1,0.1c0,0,0,0.1,0,0.1c0,0.1-0.1,0.2-0.2,0.2
		c-0.1,0-0.2,0.1-0.3,0.1C9.8,9.3,9.7,9.3,9.6,9.3z M9.5,7.8c-0.1,0-0.1,0-0.2,0C9.3,7.9,9.3,8,9.2,8c0,0,0,0.1,0,0.1l0.6-0.1
		c0,0,0-0.1-0.1-0.1C9.7,7.9,9.6,7.8,9.5,7.8L9.5,7.8z"/>
	<path class="st0" d="M10.6,8.3c0-0.2,0-0.3,0.1-0.4c0-0.1,0.1-0.2,0.2-0.3c0.1-0.1,0.2-0.1,0.3-0.2c0.1,0,0.2-0.1,0.4-0.1
		c0,0,0.1,0,0.1,0c0,0,0.1,0,0.1,0V6.8c0.1,0,0.2,0,0.3,0c0,0,0.1,0,0.1,0c0,0,0.1,0,0.1,0c0,0,0.1,0.1,0.1,0.1c0,0,0,0.1,0,0.1v1.7
		c0,0.1-0.1,0.2-0.2,0.3c-0.1,0.1-0.2,0.1-0.3,0.1c-0.3,0.1-0.5,0.1-0.8,0c-0.1,0-0.2-0.1-0.3-0.2c-0.1-0.1-0.2-0.2-0.2-0.3
		C10.6,8.6,10.6,8.5,10.6,8.3z M11.7,7.9c-0.1,0-0.2,0-0.3,0.1c-0.1,0.1-0.1,0.2-0.1,0.3c0,0.1,0,0.3,0.1,0.3
		c0.1,0.1,0.2,0.1,0.3,0.1c0,0,0.1,0,0.1,0c0,0,0.1,0,0.1,0V7.9C11.8,7.9,11.7,7.9,11.7,7.9z"/>
	<path class="st1" d="M12.8,7c0-0.1,0-0.2,0.1-0.2C13,6.7,13,6.6,13.1,6.6c0.1,0,0.2,0,0.2,0.1c0.1,0.1,0.1,0.3,0,0.5
		c-0.1,0.1-0.1,0.1-0.2,0.1s-0.2,0-0.2-0.1C12.8,7.1,12.8,7,12.8,7z"/>
	<path class="st0" d="M13.5,9.2c0,0-0.1,0-0.1,0c-0.1,0-0.1,0-0.2,0c0,0-0.1,0-0.1,0c0,0-0.1,0-0.1,0c0,0-0.1-0.1-0.1-0.1
		c0,0,0-0.1,0-0.1V7.5c0,0,0.1,0,0.1,0c0.1,0,0.1,0,0.2,0c0,0,0.1,0,0.1,0c0,0,0.1,0,0.1,0c0,0,0.1,0.1,0.1,0.1c0,0,0,0.1,0,0.1
		L13.5,9.2z"/>
	<path class="st0" d="M14.5,8.6c0,0.1,0,0.1,0.1,0.1c0,0,0.1,0,0.2,0c0,0,0.1,0,0.1,0c0,0,0.1,0,0.1,0c0,0,0,0.1,0.1,0.1
		c0,0,0,0.1,0,0.1c0,0.1,0,0.2-0.1,0.2c-0.1,0.1-0.2,0.1-0.4,0.1c-0.2,0-0.4,0-0.5-0.1c-0.1-0.1-0.2-0.3-0.2-0.5V7.1
		c0,0,0.1,0,0.1,0c0.1,0,0.1,0,0.2,0c0.1,0,0.2,0,0.2,0.1c0.1,0,0.1,0.1,0.1,0.2v0.2h0.5c0,0,0,0.1,0,0.1c0,0,0,0.1,0,0.1
		C15,7.9,15,8,14.9,8c0,0-0.1,0.1-0.2,0.1h-0.3V8.6z"/>
	<path class="st0" d="M1,11c-0.1-0.9,1-1.9,2.2-1.3c0.3,0.2,0.4,0.1,0.5-0.1c0.6-1.2,1.3-2.3,2-3.5c0.5-0.8,1-1.7,1.5-2.5
		c0.1-0.2,0.2-0.2,0.3,0C7.6,3.8,7.7,4,7.8,4.2C8,4.6,8,5.1,7.7,5.5C7.3,6.3,6.8,7.1,6.4,7.9C6.2,8.2,6.1,8.4,6.3,8.8
		c0,0.1,0.1,0.2,0.2,0.4c0.1,0.2,0.2,0.5,0.4,0.7c0.3,0.1,0.5-0.1,0.7-0.2c0.8-0.2,1.6,0.3,1.8,1c0.2,0.8-0.2,1.7-0.9,1.9
		c-0.8,0.3-1.7-0.1-2-0.9c-0.2-0.5-0.5-1-0.8-1.5c-0.1-0.2-0.2-0.3,0-0.5c0.1-0.1,0.1-0.2,0-0.3C5.7,9.1,5.6,9.3,5.5,9.4
		C5.4,9.5,5.3,9.7,5.1,9.6c-0.1,0-0.2,0.1-0.3,0.2c-0.4,0.5-0.7,1.1-0.9,1.7c-0.2,0.6-0.8,1-1.4,1c-0.6,0-1.1-0.3-1.4-0.9
		C1,11.4,1,11.2,1,11z M3.3,11c0-0.4-0.3-0.8-0.8-0.8c-0.5,0-0.8,0.3-0.8,0.8c0,0.4,0.4,0.9,0.8,0.9C2.9,11.9,3.3,11.5,3.3,11z
		 M8,10.2c-0.4,0-0.8,0.3-0.8,0.8c0,0.5,0.3,0.9,0.8,0.9c0.4,0,0.8-0.4,0.8-0.8C8.8,10.6,8.5,10.2,8,10.2z"/>
	<path class="st1" d="M2.5,4.8c0-0.5,0.3-0.9,0.5-1.3c0.1-0.2,0.2,0,0.3,0.1c0.3,0.6,0.6,1.1,1,1.7c0.2,0.3,0.4,0.7,0.6,1
		c0.2,0.3,0.2,0.6,0,0.8C4.7,7.3,4.6,7.6,4.4,7.8C4.3,8,4.2,8.1,4.1,7.8C3.6,7,3.1,6.2,2.7,5.4C2.6,5.2,2.5,5,2.5,4.8z"/>
</g>
</svg>
