<?xml version="1.0" encoding="utf-8"?>
<!-- Generator: Adobe Illustrator 26.5.0, SVG Export Plug-In . SVG Version: 6.00 Build 0)  -->
<svg version="1.1" id="Layer_1" xmlns="http://www.w3.org/2000/svg" xmlns:xlink="http://www.w3.org/1999/xlink" x="0px" y="0px"
	 viewBox="0 0 24 24" style="enable-background:new 0 0 24 24;" xml:space="preserve">
<style type="text/css">
	.st0{fill:#6300FF;}
</style>
<path class="st0" d="M17,2H7C4.2,2,2,4.2,2,7v10c0,2.8,2.2,5,5,5h10c2.8,0,5-2.2,5-5V7C22,4.2,19.8,2,17,2z M20,17c0,1.7-1.3,3-3,3
	H7c-1.7,0-3-1.3-3-3V7c0-1.7,1.3-3,3-3h10c1.7,0,3,1.3,3,3V17z"/>
</svg>
